HIERARCHY
ROOT Hips
{
	OFFSET 0.000000 0.000000 0.000000
	CHANNELS 6 Xposition Yposition Zposition Yrotation Xrotation Zrotation
	JOINT Chest
	{
		OFFSET 0.000000 -0.009281 11.569106
		CHANNELS 3 Yrotation Xrotation Zrotation
		JOINT Chest2
		{
			OFFSET -0.000000 0.016865 9.269641
			CHANNELS 3 Yrotation Xrotation Zrotation
			JOINT Chest3
			{
				OFFSET -0.000000 0.000001 8.374491
				CHANNELS 3 Yrotation Xrotation Zrotation
				JOINT Chest4
				{
					OFFSET -0.000000 0.000001 8.374493
					CHANNELS 3 Yrotation Xrotation Zrotation
					JOINT Neck
					{
						OFFSET -0.000000 0.000002 12.152554
						CHANNELS 3 Yrotation Xrotation Zrotation
						JOINT Head
						{
							OFFSET -0.000000 0.040101 7.802319
							CHANNELS 3 Yrotation Xrotation Zrotation
							End Site
							{
								OFFSET -0.000000 0.020947 14.853096
							}
						}
					}
					JOINT RightCollar
					{
						OFFSET 2.894404 0.000001 6.791374
						CHANNELS 3 Yrotation Xrotation Zrotation
						JOINT RightShoulder
						{
							OFFSET 13.574684 0.000001 0.000000
							CHANNELS 3 Yrotation Xrotation Zrotation
							JOINT RightElbow
							{
								OFFSET 23.923903 0.000002 0.000000
								CHANNELS 3 Yrotation Xrotation Zrotation
								JOINT RightWrist
								{
									OFFSET 19.846718 0.012767 0.000000
									CHANNELS 3 Yrotation Xrotation Zrotation
									End Site
									{
										OFFSET 14.973145 0.000001 0.000000
									}
								}
							}
						}
					}
					JOINT LeftCollar
					{
						OFFSET -2.894404 0.000001 6.791374
						CHANNELS 3 Yrotation Xrotation Zrotation
						JOINT LeftShoulder
						{
							OFFSET -13.574684 -0.000001 0.000000
							CHANNELS 3 Yrotation Xrotation Zrotation
							JOINT LeftElbow
							{
								OFFSET -23.923903 -0.000002 0.000000
								CHANNELS 3 Yrotation Xrotation Zrotation
								JOINT LeftWrist
								{
									OFFSET -19.846718 0.012763 0.000000
									CHANNELS 3 Yrotation Xrotation Zrotation
									End Site
									{
										OFFSET -14.973145 -0.000001 0.000000
									}
								}
							}
						}
					}
				}
			}
		}
	}
	JOINT RightHip
	{
		OFFSET 9.469263 0.004643 0.045487
		CHANNELS 3 Yrotation Xrotation Zrotation
		JOINT RightKnee
		{
			OFFSET 0.000000 0.002661 -40.478676
			CHANNELS 3 Yrotation Xrotation Zrotation
			JOINT RightAnkle
			{
				OFFSET 0.000000 0.049106 -35.224068
				CHANNELS 3 Yrotation Xrotation Zrotation
				JOINT RightToe
				{
					OFFSET -0.000001 12.539529 -6.151390
					CHANNELS 3 Yrotation Xrotation Zrotation
					End Site
					{
						OFFSET -0.000001 5.044994 -1.291870
					}
				}
			}
		}
	}
	JOINT LeftHip
	{
		OFFSET -9.469263 0.004641 0.045487
		CHANNELS 3 Yrotation Xrotation Zrotation
		JOINT LeftKnee
		{
			OFFSET 0.000000 0.002661 -40.478676
			CHANNELS 3 Yrotation Xrotation Zrotation
			JOINT LeftAnkle
			{
				OFFSET 0.000000 0.049106 -35.224068
				CHANNELS 3 Yrotation Xrotation Zrotation
				JOINT LeftToe
				{
					OFFSET -0.000001 12.539529 -6.151390
					CHANNELS 3 Yrotation Xrotation Zrotation
					End Site
					{
						OFFSET -0.000001 5.044994 -1.291870
					}
				}
			}
		}
	}
}
MOTION
Frames: 16
Frame Time: 0.016667
-0.086792 203.676254 82.728386 11.244681 16.166723 85.985347 1.902085 -2.791058 -1.082940 1.895895 -0.630378 -0.025737 1.895897 -0.630380 -0.025735 1.421882 -0.472870 -0.017347 6.310101 -17.976827 -4.020845 10.270865 2.858533 -5.291089 10.777105 2.099928 -1.727607 54.061883 -4.009152 -25.520126 -9.668360 -34.478672 -14.557927 -3.091789 -2.339579 4.961024 -7.833651 -2.653763 -3.128581 -86.836150 0.172198 -15.249697 -14.284082 19.042400 -28.878935 3.277548 7.407409 -19.982892 12.164282 1.292863 -0.748658 2.958279 -8.731864 -0.585574 8.924278 -3.952362 8.199769 -1.911187 4.575479 -0.509106 6.024441 -9.312368 -7.274040 2.312497 -44.882867 10.018396 19.377991 -28.374452 -17.166774 3.984878 71.394123 6.061539 
-1.605976 204.498184 82.317329 11.626141 17.030301 88.091613 2.337136 -3.298414 -1.667844 2.004838 -0.639353 -0.029082 2.004836 -0.639352 -0.029082 1.503582 -0.479614 -0.019714 6.905769 -17.659609 -4.302302 11.274739 3.452589 -5.592255 10.647958 1.633631 -2.177539 53.493014 -5.142417 -23.248519 -10.167411 -35.047077 -14.495138 -4.001594 -3.446559 4.973027 -7.793078 -2.797890 -3.279539 -86.765751 -0.372613 -14.623725 -14.668144 19.552011 -28.698276 3.987551 7.863631 -20.851826 13.392448 0.010331 -3.477455 3.415706 -9.178086 1.033955 7.105677 -2.368123 7.766957 -0.992074 4.508524 -1.155509 7.573654 -6.128665 -7.067786 4.315381 -48.291200 7.491604 20.620522 -28.911026 -13.992687 -11.304894 72.510217 -5.708378 
-3.108248 205.088089 81.877808 11.042626 17.672747 89.573655 2.805776 -2.912905 -1.829897 2.050263 -0.690038 -0.051714 2.050263 -0.690037 -0.051714 1.537620 -0.517708 -0.036470 7.466339 -17.300435 -4.547516 12.228089 4.122426 -5.832491 10.546279 1.143511 -2.504508 53.362595 -6.476646 -20.510570 -10.705782 -35.359760 -14.520089 -4.412010 -4.500177 4.872563 -7.737688 -3.087100 -3.283686 -86.751517 -0.987243 -14.260705 -14.761613 20.435084 -28.282780 4.858195 7.538861 -21.582395 14.089693 0.188706 -3.757626 4.235606 -10.392485 1.478822 5.436847 -0.103248 6.320818 -0.100245 4.047742 -1.210549 8.080593 -1.687018 -6.035003 7.374713 -50.875371 4.820370 22.739786 -28.092387 -11.741089 -25.061156 70.362778 -16.368314 
-4.614281 205.340576 81.476929 10.548601 18.177855 90.814619 3.209014 -2.575094 -1.697435 2.091081 -0.763372 -0.080848 2.091080 -0.763373 -0.080849 1.568185 -0.572814 -0.058024 7.925845 -16.986983 -4.760121 13.007136 4.706991 -6.046717 10.295391 0.413812 -2.431703 53.554946 -7.471666 -17.485313 -11.166937 -35.368188 -14.438750 -4.770628 -5.389527 4.826469 -7.805383 -3.112099 -3.116801 -86.795729 -1.620756 -13.683176 -14.460485 21.525695 -27.357880 6.173862 7.302638 -22.480697 14.736960 0.298132 -3.181077 5.053258 -11.582587 0.732498 3.809223 1.785485 5.157478 0.589173 3.821888 -1.009321 8.335187 2.908287 -4.832791 9.606955 -52.488525 2.872335 24.263497 -26.919256 -11.467777 -28.182711 67.255766 -18.139183 
-6.258033 205.588181 81.136978 10.397214 18.790045 92.306633 3.818760 -2.494974 -1.623485 2.118658 -0.816055 -0.079640 2.118660 -0.816056 -0.079639 1.588860 -0.612326 -0.056900 8.277649 -16.738661 -4.997960 13.577998 5.174835 -6.347152 10.099716 -0.271684 -2.296139 53.724800 -8.267116 -14.412877 -11.492913 -35.114802 -14.149791 -5.494839 -5.908678 5.167869 -7.888237 -3.048566 -3.089281 -86.870881 -1.873256 -12.905841 -13.755420 22.394288 -25.757779 7.934456 7.979379 -23.719065 15.491018 -0.128802 -2.889421 5.754052 -12.244805 -0.388460 2.342840 3.272701 4.193349 1.189760 3.695496 -0.565348 8.653286 7.222683 -4.997171 9.673606 -53.397289 3.136532 24.980090 -25.412195 -11.888247 -26.346495 63.440156 -16.022760 
-8.007583 205.804443 80.839813 10.514882 19.360735 93.712340 4.522556 -2.681286 -1.339396 2.102230 -0.834018 -0.031855 2.102229 -0.834018 -0.031854 1.576601 -0.625632 -0.021022 8.532613 -16.554166 -5.249745 13.963603 5.527953 -6.710746 9.980014 -0.823526 -2.344572 53.885408 -9.037594 -11.196014 -11.647639 -34.751511 -13.756902 -6.821855 -5.762630 6.113628 -7.871626 -2.795418 -3.045147 -87.058144 -1.747330 -11.891277 -12.635514 22.884352 -23.528868 9.821290 9.410290 -25.095351 16.262433 -1.070499 -3.040825 6.365483 -12.576492 -0.847768 1.002760 4.562781 3.345537 1.544940 3.620669 -0.345826 8.991820 11.171122 -6.163455 7.341881 -53.850581 4.825973 25.355860 -23.879649 -11.395856 -23.889012 58.767624 -13.434524 
-9.861639 206.022202 80.573235 10.891842 19.751994 94.700286 5.225592 -3.094050 -0.655348 2.055855 -0.811902 0.043797 2.055853 -0.811902 0.043797 1.541923 -0.608788 0.035579 8.647788 -16.478045 -5.470338 14.099311 5.681562 -7.073230 10.014832 -0.960362 -2.345044 53.925733 -9.954803 -8.207447 -11.640766 -34.337021 -13.393112 -8.803685 -4.910500 7.750800 -7.948378 -2.378994 -2.851173 -87.323852 -1.133914 -10.556296 -11.260249 23.071349 -20.905013 11.653105 10.799287 -26.403090 16.936953 -2.521812 -3.910355 6.586333 -12.691969 -0.148187 -0.226883 5.669160 2.548627 1.829424 3.509234 -0.185524 9.192154 14.731104 -7.647976 3.470579 -53.863213 7.183536 25.130663 -22.950829 -9.250694 -22.136522 53.597966 -11.397152 
-11.769732 206.155716 80.329971 11.349597 19.807391 95.300195 5.731873 -3.588410 0.273374 1.998564 -0.778924 0.129841 1.998564 -0.778924 0.129842 1.499065 -0.583774 0.099929 8.605765 -16.483316 -5.617884 13.968380 5.682487 -7.361668 10.162990 -0.786492 -2.176540 53.929135 -10.873515 -5.339458 -11.594892 -33.749744 -13.076080 -11.390621 -3.622952 9.856169 -8.171643 -1.898572 -2.534766 -87.486083 -0.003768 -9.044587 -9.843658 23.181362 -18.093962 13.394762 11.658237 -27.550224 17.406705 -4.372682 -4.741677 6.456191 -12.460158 0.814746 -1.214336 6.679866 1.970599 2.002564 3.278309 -0.162147 9.215894 17.808984 -8.811658 -0.492013 -52.787861 10.005363 24.527243 -22.359775 -6.999850 -20.360536 48.117105 -9.455611 
-13.651061 206.194901 80.143448 11.407901 19.433594 95.770358 5.843307 -3.712195 1.047190 1.939317 -0.768015 0.222164 1.939317 -0.768017 0.222164 1.454745 -0.575314 0.169060 8.427225 -16.525064 -5.677252 13.615515 5.611862 -7.537405 10.392362 -0.839640 -1.857590 53.905011 -11.288929 -2.043938 -11.559185 -32.944926 -12.726263 -14.439151 -2.110799 12.005449 -8.434294 -1.322790 -2.101065 -87.486288 1.416220 -7.401953 -8.306126 23.393031 -15.159383 14.816195 11.974980 -28.411306 17.452728 -6.037167 -5.271308 6.258123 -11.940548 1.414948 -2.055341 7.856808 1.463071 2.138388 2.735993 -0.056421 8.997710 20.614687 -9.559471 -3.544679 -50.294713 13.293664 23.789779 -21.215420 -6.063070 -17.949700 42.014054 -7.334737 
-15.532148 206.163498 79.983131 11.179189 18.825692 96.229456 5.731111 -3.593468 1.623753 1.867505 -0.787449 0.333940 1.867503 -0.787449 0.333939 1.401037 -0.589573 0.252859 8.153037 -16.552967 -5.677748 13.106522 5.563715 -7.636853 10.618355 -1.196172 -1.619574 53.953461 -11.035738 1.928968 -11.485323 -32.015398 -12.249700 -17.717253 -0.514679 13.891538 -8.617204 -1.027821 -1.848973 -87.330730 3.048897 -5.988026 -6.524462 23.843362 -12.114503 15.751070 12.070839 -28.963055 17.167503 -7.497140 -5.698658 6.077763 -11.321671 1.930085 -2.659831 8.938377 1.071789 2.125163 2.225855 -0.055642 8.855029 23.035694 -9.526819 -5.234439 -46.780071 15.999283 22.777540 -19.535560 -6.119942 -15.097085 35.445957 -5.286186 
-17.396152 206.022827 79.880112 10.779688 18.058066 96.666943 5.455000 -3.348877 2.056475 1.782836 -0.844506 0.456049 1.782836 -0.844507 0.456051 1.337736 -0.632057 0.344498 7.792641 -16.549398 -5.618832 12.458984 5.570398 -7.654857 10.836622 -1.520079 -1.509648 54.202151 -10.221347 6.321582 -11.324466 -31.081824 -11.575363 -20.963843 1.043425 15.467272 -8.672611 -0.878302 -1.866423 -87.100505 4.732404 -4.653665 -4.421960 24.607556 -8.995824 16.206956 12.305294 -29.147173 16.583769 -8.770860 -6.107582 5.926010 -10.786361 2.541865 -3.030464 9.794986 0.812057 1.965427 1.933653 -0.208967 8.703611 24.853761 -8.451463 -5.200681 -42.463283 16.407211 20.838870 -18.156209 -5.952951 -11.793028 28.805756 -3.405324 
-19.263416 205.775681 79.856148 10.434003 17.177641 96.936545 5.140758 -3.135330 2.455339 1.698627 -0.913905 0.575315 1.698627 -0.913905 0.575315 1.274807 -0.683837 0.434022 7.297859 -16.576886 -5.481288 11.590285 5.515376 -7.576483 11.057466 -1.475711 -1.546264 54.646510 -9.313386 10.745669 -10.888968 -29.991402 -10.707197 -23.945076 2.489188 16.680837 -8.712719 -0.564324 -1.898725 -86.779828 6.218376 -2.944823 -2.028947 25.636765 -5.868209 16.363299 12.740372 -28.883982 15.845988 -10.029400 -6.246188 5.665656 -10.442348 2.962151 -3.207730 10.458217 0.663176 1.785277 1.855501 -0.355283 8.586489 25.846862 -5.876533 -3.939750 -37.654416 14.473015 18.477330 -17.585594 -5.412935 -8.430246 22.837188 -2.051113 
-21.089125 205.405106 79.865372 9.964336 16.145285 97.228139 4.794920 -2.692649 2.479658 1.633638 -0.969115 0.663648 1.633638 -0.969114 0.663648 1.226253 -0.725069 0.500319 6.619995 -16.710367 -5.219432 10.427196 5.257705 -7.336925 11.239996 -1.266400 -1.656306 55.203344 -8.520722 15.063540 -10.020822 -28.360714 -9.539371 -26.504930 3.740185 17.665091 -8.913821 -0.236896 -1.762571 -86.229021 7.699302 -0.925911 0.546530 26.579452 -2.664888 16.465342 13.361035 -28.167620 14.955401 -10.998380 -6.215623 5.248940 -10.360929 2.892158 -3.161488 11.037241 0.645946 1.632118 1.900622 -0.392603 8.370025 26.358079 -2.745777 -2.965145 -32.415514 11.804067 16.300953 -17.579261 -4.537184 -5.227251 17.497563 -1.166554 
-22.886623 204.969055 79.924698 9.345863 15.261016 97.696417 4.679124 -1.966608 2.047021 1.574598 -1.005907 0.732305 1.574597 -1.005907 0.732305 1.182126 -0.752551 0.551811 5.809388 -16.930582 -4.858192 9.055022 4.834322 -6.961265 11.433401 -1.409644 -1.730424 55.954556 -7.589565 19.457911 -8.774237 -25.980629 -8.090183 -28.421865 4.795844 18.713535 -9.126109 -0.021669 -1.470973 -85.447845 9.198075 1.193129 3.162053 27.246656 0.645924 16.651303 13.986503 -27.084436 14.237342 -11.674575 -6.354195 4.737200 -10.448115 2.746374 -2.987751 11.337077 0.574382 1.482579 2.192726 -0.379725 8.075415 26.680927 -1.225832 -2.916949 -27.009215 10.246474 13.696303 -18.372481 -3.259339 -1.872261 13.088882 -0.312121 
-24.828516 204.372498 80.019188 9.347326 14.074367 97.740676 4.374050 -1.863834 1.996735 1.501411 -1.055410 0.785807 1.501411 -1.055412 0.785809 1.127384 -0.789635 0.591935 4.935769 -17.168755 -4.418180 7.595318 4.374467 -6.458951 11.725273 -1.850510 -1.603269 57.029976 -6.501089 23.728811 -7.404451 -23.175761 -6.269777 -29.441882 5.643799 19.673149 -9.202363 0.228483 -1.080181 -84.475718 10.725037 3.471543 5.678843 27.562219 3.915990 17.018472 14.208178 -25.803125 13.115550 -13.086249 -6.411758 4.176352 -10.703342 3.073938 -2.689164 11.551304 0.299905 1.319060 2.524531 -0.290650 7.542855 25.740502 -1.025157 -3.320501 -21.701758 10.933243 11.040011 -18.967866 -1.877771 0.845351 6.218450 -0.159765 
-26.846779 203.614563 80.133377 9.374722 12.637419 97.829906 3.860525 -1.751099 1.796185 1.405228 -1.118929 0.821365 1.405227 -1.118928 0.821364 1.055394 -0.837315 0.618582 4.036754 -17.414868 -3.906708 6.114519 3.898542 -5.829766 11.912040 -2.078438 -1.554081 58.638212 -5.940052 27.234657 -6.112835 -20.397796 -3.661798 -29.651436 6.124652 20.086237 -9.175568 0.493597 -0.754435 -83.374562 12.600186 5.978564 8.132132 27.314195 6.954225 17.568946 13.825118 -24.522473 11.620390 -14.493262 -6.759854 3.549451 -11.220334 3.779155 -2.157858 11.688723 0.030729 1.186795 4.250832 -0.171208 6.994198 24.048565 -1.035251 -3.605578 -16.299912 12.872323 8.711676 -19.092774 -2.023113 2.742948 1.646166 -0.172947 
